<svg viewBox="0 0 35 35" fill="none" xmlns="http://www.w3.org/2000/svg">
<path d="M28.6607 14.0982C28.6607 14.4777 28.5268 14.8348 28.2589 15.1027L16.1384 27.2232C15.8705 27.4911 15.4911 27.6473 15.1116 27.6473C14.7545 27.6473 14.375 27.4911 14.1071 27.2232L6.02679 19.1429C5.75893 18.875 5.625 18.5179 5.625 18.1384C5.625 17.7589 5.75893 17.3795 6.02679 17.1116L8.05804 15.1027C8.32589 14.8348 8.68304 14.6786 9.0625 14.6786C9.44196 14.6786 9.79911 14.8348 10.067 15.1027L15.1116 20.1473L24.2188 11.0625C24.4866 10.7946 24.8438 10.6384 25.2232 10.6384C25.6027 10.6384 25.9598 10.7946 26.2277 11.0625L28.2589 13.0714C28.5268 13.3393 28.6607 13.7187 28.6607 14.0982ZM34.2857 17.7143C34.2857 8.25 26.6071 0.571427 17.1429 0.571427C7.67857 0.571427 0 8.25 0 17.7143C0 27.1786 7.67857 34.8571 17.1429 34.8571C26.6071 34.8571 34.2857 27.1786 34.2857 17.7143Z" fill="#007C8A"/>
</svg>
